<?xml version="1.0" encoding="UTF-8"?>
<svg id="Layer_2" data-name="Layer 2" xmlns="http://www.w3.org/2000/svg" xmlns:xlink="http://www.w3.org/1999/xlink" viewBox="0 0 1419.69 1419.91">
  <defs>
    <style>
      .cls-1 {
        fill: url(#linear-gradient-2);
      }

      .cls-2 {
        fill: url(#linear-gradient-4);
      }

      .cls-3 {
        opacity: .18;
      }

      .cls-4 {
        fill: url(#linear-gradient-3);
      }

      .cls-5 {
        fill: url(#linear-gradient-5);
      }

      .cls-6 {
        fill: url(#linear-gradient);
      }
    </style>
    <linearGradient id="linear-gradient" x1="426.74" y1="724.91" x2="1276.98" y2="1572.4" gradientUnits="userSpaceOnUse">
      <stop offset="0" stop-color="#e26137"/>
      <stop offset="1" stop-color="#e26137" stop-opacity="0"/>
    </linearGradient>
    <linearGradient id="linear-gradient-2" x1="619.96" y1="531.06" x2="1470.21" y2="1378.55" xlink:href="#linear-gradient"/>
    <linearGradient id="linear-gradient-3" x1="575.55" y1="575.62" x2="1425.79" y2="1423.11" xlink:href="#linear-gradient"/>
    <linearGradient id="linear-gradient-4" x1="577.11" y1="574.06" x2="1427.35" y2="1421.55" xlink:href="#linear-gradient"/>
    <linearGradient id="linear-gradient-5" x1="575.31" y1="575.86" x2="1425.55" y2="1423.35" xlink:href="#linear-gradient"/>
  </defs>
  <g id="Layer_1-2" data-name="Layer 1">
    <g class="cls-3">
      <polygon class="cls-6" points="443.6 604.64 426.1 683.06 247.24 683.06 273.38 539.3 443.6 604.64"/>
      <path class="cls-1" d="M630.89,260.2v163.42c-49.69,51.41-117.41,89.11-177.79,127.89l-149.05-53.57c56.81-127.67,187.83-222.39,326.84-237.73Z"/>
      <path class="cls-4" d="M720.54,888.17c-225.74,14.15-258.9-331.49-29.59-356.44,236.44-25.6,267.22,341.53,29.59,356.44Z"/>
      <path class="cls-2" d="M989.05,947.36h-.22c-3.24,4.32-44.61,31.65-50.77,32.4-24.52,2.38-65.24-37.7-50.12-63.62,4.32-6.8,30.24-30.13,38.45-31.65,23.44-5.08,80.9,37.59,62.65,62.86Z"/>
      <path class="cls-5" d="M1419.48,697.86c-2.05-127.89-38.02-247.67-99.37-350.71C1217.28,174.44,1043.28,49.14,838.7,11.66v.22c-41.8-7.78-84.79-11.88-128.86-11.88C439.6,0,204.57,151.11,84.68,373.39c-28.52,52.93-50.55,109.85-64.91,169.69-10.04,41.58-16.42,84.68-18.69,128.75-.76,12.64-1.08,25.38-1.08,38.24,0,127.99,33.92,247.99,93.11,351.68,122.27,213.97,352.66,358.16,616.74,358.16s494.26-144.19,616.42-358.27c20.63-36.18,38.24-74.42,52.39-114.38,1.19-3.13,2.27-6.37,3.35-9.61,24.52-71.4,37.7-148.08,37.7-227.58,0-4.1,0-8.1-.22-12.21ZM1178.07,1061.64c-146.03,193.66-407.31,298-675.93,197.01-110.49-41.58-199.17-111.25-263.01-196.9-50.77-68.05-85.87-146.14-103.47-228.12-2.81-12.21-5.08-24.52-6.91-36.94-18.25-120.65.43-247.56,61.03-362.27,19.66-37.26,43.74-73.23,72.37-107.25,244.86-290.44,692.35-262.25,911.18,19.98,28.08,36.08,52.28,76.36,71.93,120.76,95.16,215.27,52.93,434.64-67.18,593.74Z"/>
    </g>
  </g>
</svg>